 <svg  version="1.0" xmlns="http://www.w3.org/2000/svg"  width="300.000000pt" height="300.000000pt" viewBox="0 0 300.000000 300.000000"  preserveAspectRatio="xMidYMid meet">  <g transform="translate(0.000000,300.000000) scale(0.100000,-0.100000)" fill="#001c56" stroke="none"> <path d="M0 1500 l0 -1500 1500 0 1500 0 0 1500 0 1500 -1500 0 -1500 0 0 -1500z m2218 1483 c-368 -2 -968 -2 -1335 0 -368 1 -67 2 667 2 734 0 1035 -1 668 -2z m745 0 c-13 -2 -33 -2 -45 0 -13 2 -3 4 22 4 25 0 35 -2 23 -4z m-1386 -258 c13 -13 3 -15 -85 -15 -105 0 -162 -7 -162 -21 0 -11 252 1 267 13 7 6 14 5 19 -3 4 -7 3 -9 -4 -5 -5 3 -12 1 -14 -6 -3 -8 -35 -13 -101 -14 -64 -1 -102 -6 -113 -14 -11 -10 -18 -10 -22 -3 -4 6 -23 13 -41 15 -19 2 -36 9 -37 16 -1 7 0 8 3 2 2 -5 12 -10 20 -10 13 0 13 3 3 15 -10 12 -9 15 7 15 10 0 23 4 29 9 22 22 210 27 231 6z m1410 -533 c-1 -97 -2 -15 -2 183 0 198 1 278 2 177 2 -101 2 -263 0 -360z m-1163 492 c30 -4 53 -11 50 -15 -3 -5 6 -9 20 -9 14 0 26 -6 27 -12 0 -9 2 -9 5 -2 5 12 116 -40 122 -57 2 -5 12 -9 23 -9 10 0 19 -6 19 -14 0 -9 -23 -2 -77 25 -121 60 -282 106 -293 84 -3 -5 6 -11 20 -13 68 -8 303 -101 335 -133 16 -16 -13 -10 -52 11 -21 11 -43 20 -50 20 -7 0 -13 5 -13 11 0 6 -9 9 -19 6 -11 -3 -22 1 -25 8 -3 10 -18 12 -47 10 -39 -4 -41 -3 -23 10 18 14 17 14 -11 16 -16 1 -36 1 -42 0 -7 -1 -13 3 -13 9 0 5 -13 10 -30 10 -37 0 -55 28 -33 52 11 13 20 15 33 8 10 -5 43 -13 74 -16z m-664 -8 c0 -11 -19 -15 -25 -6 -3 5 1 10 9 10 9 0 16 -2 16 -4z m395 -26 c-3 -5 -14 -8 -25 -7 -14 1 -16 5 -9 13 11 14 42 7 34 -6z m-410 -10 c7 0 15 6 18 13 2 6 7 10 10 7 3 -3 -1 -13 -8 -23 -11 -15 -17 -17 -34 -7 -13 6 -19 16 -14 23 5 8 8 8 11 -1 2 -7 10 -12 17 -12z m322 9 c-14 -8 -22 -8 -30 0 -8 8 -3 11 19 11 25 -1 27 -2 11 -11z m223 -49 c26 0 26 17 0 25 -11 3 -20 10 -20 15 0 4 9 6 20 3 19 -5 22 -10 24 -43 1 -9 13 -15 30 -17 16 -1 34 -7 40 -13 5 -5 22 -10 37 -10 15 0 32 -7 39 -15 21 -26 33 -16 16 13 l-17 27 23 -26 c39 -45 103 -67 67 -23 -13 16 -12 16 6 6 11 -6 32 -13 46 -16 15 -3 30 -13 33 -23 6 -16 6 -16 -12 0 -21 19 -56 23 -50 6 2 -6 26 -23 53 -37 27 -15 60 -38 74 -51 20 -19 22 -27 13 -42 -9 -15 -9 -21 4 -31 31 -26 104 -100 104 -106 0 -3 -19 12 -42 34 -24 23 -55 50 -70 61 -24 18 -26 22 -13 33 22 18 6 33 -89 84 -93 51 -220 97 -321 117 -95 19 -319 16 -413 -5 -90 -20 -92 -20 -92 -1 0 8 7 15 16 15 9 0 31 14 49 32 40 38 58 42 81 17 21 -24 59 -25 74 -1 8 12 13 13 16 5 7 -16 60 -17 69 -3 5 8 11 7 21 -1 8 -6 27 -9 44 -5 17 3 30 1 30 -4 0 -6 14 -10 31 -10 20 0 29 4 26 13 -2 6 -9 11 -14 10 -5 -1 -10 5 -10 14 0 11 9 6 29 -15 15 -18 37 -32 48 -32z m-300 34 c0 -2 -12 -4 -26 -4 -14 0 -23 4 -20 9 6 8 46 4 46 -5z m-182 -28 c-16 -5 -30 -18 -34 -28 -5 -16 -64 -66 -64 -54 0 16 14 36 26 36 8 0 14 5 14 10 0 27 -40 6 -72 -38 -7 -9 -20 -23 -29 -29 -13 -10 -16 -10 -16 2 0 8 2 13 5 10 6 -5 62 54 62 65 0 13 38 18 50 6 9 -8 14 -8 17 2 9 24 34 41 51 34 14 -5 12 -8 -10 -16z m-218 -14 c0 -4 -5 -13 -10 -18 -13 -13 -2 -44 15 -44 7 0 19 10 28 23 11 17 18 19 27 10 9 -8 7 -13 -9 -18 -12 -3 -21 -15 -21 -25 0 -10 -5 -22 -10 -25 -6 -4 -8 -10 -5 -15 5 -8 -36 -23 -43 -16 -2 2 7 13 19 25 12 11 20 23 17 27 -10 9 -46 -18 -57 -43 -6 -13 -16 -23 -23 -23 -9 0 -8 -3 2 -10 9 -6 10 -10 3 -10 -19 0 -21 13 -7 40 8 14 14 21 14 15 1 -5 8 3 16 18 8 16 20 25 26 21 6 -4 8 -3 5 4 -4 5 -16 8 -27 5 -11 -3 -17 -10 -14 -15 4 -6 -1 -8 -12 -4 -11 3 -26 1 -34 -5 -13 -9 -12 -10 3 -5 22 7 24 -29 2 -42 -9 -4 -17 -18 -18 -31 -2 -27 -37 -64 -37 -39 0 9 6 20 13 26 17 14 21 65 4 59 -6 -2 -10 -11 -9 -18 2 -8 0 -11 -4 -7 -3 4 -18 -2 -32 -12 -13 -11 -31 -20 -38 -20 -22 0 -16 -27 6 -33 12 -3 20 -14 20 -27 0 -11 -4 -19 -10 -15 -5 3 -7 12 -3 20 3 8 1 15 -5 15 -15 0 -35 -28 -28 -39 4 -5 2 -12 -3 -16 -6 -3 -8 -12 -5 -19 5 -14 -23 -43 -33 -32 -3 3 -12 -3 -20 -14 -14 -20 -40 -29 -28 -10 10 16 -7 12 -27 -7 -15 -14 -18 -14 -18 -1 0 8 11 20 25 26 32 15 38 15 30 2 -3 -5 -2 -10 3 -10 6 0 13 7 16 16 3 9 11 12 18 8 7 -4 10 -3 5 1 -4 5 3 19 14 31 19 21 20 24 6 30 -15 5 -14 8 6 25 29 24 13 24 -21 0 -15 -10 -32 -20 -39 -22 -8 -3 -9 -9 -3 -18 7 -12 11 -12 24 -2 21 18 20 3 -1 -21 -17 -19 -39 -25 -28 -8 3 6 3 15 -1 21 -4 7 -14 2 -28 -14 -16 -19 -26 -23 -41 -17 -19 8 -19 9 3 9 15 1 22 6 19 14 -2 6 -10 11 -16 9 -6 -1 -11 1 -11 5 2 25 159 168 218 197 17 9 32 21 32 26 0 6 7 10 15 10 8 0 15 3 15 8 0 12 43 29 78 31 17 0 32 -3 32 -7z m830 -13 c0 -5 -4 -9 -10 -9 -5 0 -10 7 -10 16 0 8 5 12 10 9 6 -3 10 -10 10 -16z m300 -40 c0 -6 -4 -7 -10 -4 -5 3 -10 11 -10 16 0 6 5 7 10 4 6 -3 10 -11 10 -16z m-934 -37 c-3 -2 -40 -19 -83 -36 -167 -67 -352 -217 -452 -365 -84 -124 -150 -292 -166 -425 -7 -50 -10 -56 -31 -56 -24 0 -24 -1 -24 -112 0 -82 3 -109 11 -98 8 12 9 10 4 -8 -10 -35 5 -128 17 -111 8 11 9 10 4 -4 -7 -22 4 -78 14 -72 5 3 6 -5 2 -17 -3 -13 -1 -19 5 -15 11 7 28 -22 18 -31 -3 -3 -5 1 -5 8 0 7 -2 11 -5 8 -9 -9 7 -38 17 -32 6 4 7 -2 3 -16 -5 -15 -4 -20 4 -16 7 5 8 1 4 -10 -5 -13 -3 -15 7 -9 8 5 11 3 8 -6 -11 -30 86 -183 176 -279 44 -47 50 -50 64 -36 14 14 20 11 61 -23 184 -154 438 -241 651 -225 67 5 70 4 70 -17 0 -21 3 -21 60 -15 142 16 325 85 457 173 123 81 302 275 272 294 -8 5 -18 9 -22 9 -5 0 1 15 12 33 66 100 122 243 141 361 13 80 15 219 5 326 -8 81 -1 90 15 19 5 -24 12 -57 16 -73 6 -23 4 -27 -7 -21 -11 6 -12 5 -1 -6 6 -7 12 -18 12 -23 0 -6 -5 -4 -10 4 -6 9 -10 10 -10 3 0 -6 5 -15 11 -19 17 -10 -3 -205 -29 -299 -5 -16 -7 -36 -5 -42 3 -7 -2 -16 -11 -19 -9 -3 -13 -10 -11 -15 3 -5 -15 -52 -42 -106 -51 -105 -57 -123 -42 -123 6 0 7 -6 3 -12 -4 -7 6 2 22 21 26 29 31 32 42 18 10 -12 11 -21 2 -36 -6 -12 -15 -21 -20 -21 -6 0 -10 -8 -10 -17 0 -18 -28 -53 -42 -53 -4 0 7 21 25 47 46 67 50 73 38 73 -5 0 -31 -33 -58 -72 -26 -40 -79 -103 -116 -141 -37 -37 -66 -71 -63 -76 7 -10 -22 -51 -36 -51 -6 0 -1 11 12 25 15 16 19 25 10 25 -21 0 -69 -50 -63 -66 6 -17 -18 -42 -35 -36 -10 3 -8 8 5 17 10 7 15 16 12 19 -7 8 -69 -25 -69 -36 0 -5 -7 -8 -15 -8 -9 0 -18 -7 -22 -16 -3 -8 -12 -13 -20 -10 -16 6 -65 -22 -58 -34 2 -4 -6 -5 -19 -3 -29 6 -66 -12 -66 -33 0 -8 -11 -19 -25 -24 -14 -5 -25 -14 -25 -20 0 -5 -5 -10 -11 -10 -8 0 -9 4 0 13 6 8 8 17 4 20 -3 4 1 7 9 7 9 0 22 7 29 16 12 15 10 15 -25 0 -21 -9 -50 -16 -65 -16 -30 -1 -108 -64 -92 -75 18 -10 12 -28 -6 -21 -9 4 -20 1 -25 -6 -6 -10 -10 -10 -15 -2 -5 8 -46 12 -113 13 -94 0 -256 21 -279 36 -5 3 -11 1 -13 -4 -4 -13 -133 31 -160 53 -11 10 -22 15 -26 12 -3 -3 -30 8 -60 25 -57 32 -84 31 -42 -1 66 -51 355 -153 370 -131 6 10 140 -10 140 -21 0 -4 52 -8 115 -8 63 0 115 -3 115 -8 0 -13 -216 -15 -240 -2 -12 6 -56 13 -99 15 -44 3 -99 9 -122 15 -24 6 -55 14 -68 17 -14 3 -49 19 -79 35 -30 15 -60 28 -67 28 -20 0 -97 60 -102 81 -3 10 -13 19 -23 19 -10 0 -20 3 -22 8 -4 10 -70 58 -87 64 -12 4 -12 5 1 11 11 4 33 -7 60 -28 42 -34 63 -44 56 -26 -2 4 -38 36 -80 70 -43 35 -106 96 -139 137 -37 44 -69 74 -80 74 -11 0 -19 -5 -19 -11 0 -6 6 -9 12 -7 21 7 53 -42 57 -86 1 -4 7 -6 15 -3 7 3 36 -17 66 -48 52 -52 52 -53 30 -65 -13 -7 -20 -7 -16 -2 7 12 -33 57 -86 97 -21 15 -38 35 -38 44 0 9 -18 35 -41 56 -22 22 -50 57 -61 78 -12 20 -25 37 -30 37 -4 0 -8 6 -8 14 0 8 -13 38 -28 67 -34 66 -76 195 -69 214 7 18 -12 155 -25 179 -13 25 17 53 38 35 21 -17 35 -2 24 26 -6 15 -6 27 0 30 6 3 6 15 0 29 -5 13 -6 27 -3 30 4 3 1 6 -6 6 -20 0 0 157 34 278 9 29 13 58 9 64 -4 7 -3 8 4 4 7 -4 13 -1 13 6 1 7 3 24 4 38 1 14 6 33 10 43 4 10 3 17 -3 17 -17 0 -69 -148 -91 -257 -23 -113 -26 -143 -11 -143 6 0 10 -4 10 -10 0 -5 -7 -10 -15 -10 -21 0 -19 -9 8 -31 12 -10 17 -18 10 -19 -20 0 -44 31 -38 50 3 10 1 21 -5 25 -10 6 -9 14 5 75 3 14 7 34 9 45 41 198 99 328 126 285 5 -8 10 -25 10 -37 0 -13 4 -23 8 -23 14 0 32 24 32 43 0 10 9 30 20 44 11 14 20 33 20 41 0 23 30 52 46 45 10 -3 12 0 8 10 -9 23 12 54 41 59 14 3 25 1 25 -4 0 -6 7 -7 16 -4 8 3 12 2 9 -4 -3 -6 -17 -7 -31 -4 -18 5 -29 1 -39 -12 -23 -31 -17 -39 10 -14 14 13 25 19 25 14 0 -5 -9 -15 -20 -22 -12 -7 -18 -18 -14 -24 5 -7 3 -8 -6 -3 -10 6 -12 3 -7 -14 3 -13 3 -20 0 -17 -4 3 -13 0 -22 -7 -14 -11 -14 -10 -2 6 8 9 11 21 7 25 -8 7 -29 -23 -33 -48 -1 -8 3 -20 8 -27 7 -8 7 -18 0 -32 -6 -11 -10 -28 -9 -38 2 -10 -8 -49 -20 -86 -20 -56 -26 -66 -38 -56 -8 6 -11 15 -8 20 7 12 -5 49 -16 49 -4 0 -10 -10 -13 -22 -4 -15 1 -28 20 -44 l26 -22 -17 -81 c-18 -92 -20 -120 -8 -106 5 6 15 44 22 85 6 41 28 117 47 168 18 51 31 97 28 102 -4 6 1 13 9 16 9 3 16 10 16 16 0 40 245 328 279 328 7 0 9 5 5 12 -5 7 -3 8 6 3 7 -4 15 -4 19 1 21 30 154 107 165 97 3 -4 6 -1 6 5 0 6 14 13 30 17 17 4 43 19 58 35 26 26 27 27 35 7 4 -11 5 -22 3 -25z m539 -7 c92 -23 285 -107 316 -137 8 -7 37 -30 65 -51 98 -71 254 -260 254 -308 0 -45 -39 -26 -76 36 -14 25 -32 45 -41 45 -8 0 -12 4 -8 9 3 5 0 13 -6 17 -8 4 -9 3 -5 -4 4 -7 3 -12 -3 -12 -15 0 -31 35 -31 67 l1 28 35 -40 c20 -22 53 -66 73 -97 21 -32 41 -55 44 -52 19 20 -192 270 -219 260 -7 -3 -16 -1 -19 4 -4 6 -1 10 5 10 6 0 8 5 4 12 -6 9 -9 9 -12 0 -2 -8 -17 1 -38 24 -35 36 -35 36 -67 20 -29 -14 -30 -16 -8 -16 13 0 52 -20 87 -46 35 -25 64 -42 64 -38 0 3 7 1 15 -6 8 -7 12 -16 9 -21 -3 -5 -2 -9 3 -8 19 3 21 -3 13 -32 -6 -21 -5 -38 2 -53 7 -11 11 -28 10 -36 -1 -9 1 -10 4 -3 3 7 12 9 20 6 12 -4 13 -8 4 -13 -16 -10 -4 -30 16 -30 11 0 14 6 9 23 -6 17 -5 19 5 10 15 -14 29 -38 72 -123 18 -36 34 -67 36 -70 2 -2 7 2 12 10 12 18 12 3 1 -25 -5 -12 -3 -28 4 -40 11 -18 33 -113 40 -173 1 -12 6 -26 9 -30 4 -4 6 24 4 62 -2 46 1 70 9 73 14 5 29 -37 15 -46 -6 -4 -8 -37 -4 -91 4 -47 4 -121 1 -165 -3 -44 -2 -83 3 -86 13 -9 -22 -140 -39 -146 -9 -4 -11 -8 -4 -12 13 -8 -53 -159 -99 -227 -70 -102 -235 -255 -327 -303 -44 -23 -22 -3 39 34 91 56 273 247 316 330 7 14 6 32 -5 64 -16 46 -16 42 28 133 5 10 9 29 9 42 0 14 5 28 11 32 6 3 9 17 6 30 -2 14 0 27 4 30 5 3 9 15 9 27 -1 22 -1 22 -16 2 -9 -12 -13 -30 -9 -45 l6 -25 -21 25 c-11 14 -20 36 -20 49 0 19 4 22 21 18 15 -4 19 -2 15 10 -3 8 -7 24 -7 36 -1 17 -3 15 -9 -8 -5 -20 -8 2 -8 65 0 63 3 85 8 65 7 -29 8 -29 9 10 1 32 4 37 12 22 5 -9 7 -22 4 -27 -3 -6 1 -10 9 -10 22 0 20 26 -4 50 -24 24 -25 31 -5 24 11 -5 15 1 15 20 0 14 -3 25 -7 25 -19 -3 -27 2 -15 10 12 7 12 13 0 37 -8 16 -13 36 -11 45 2 9 -3 21 -11 28 -8 7 -12 19 -9 27 3 8 -8 28 -26 46 -28 28 -31 30 -31 11 0 -22 23 -47 33 -37 4 4 2 -9 -4 -27 -21 -66 -22 -76 -9 -59 10 13 11 12 6 -3 -3 -10 -6 -24 -7 -30 0 -7 -12 22 -28 64 -34 94 -106 212 -177 289 -31 33 -50 61 -44 65 18 11 11 23 -41 60 -81 58 -166 101 -269 136 -92 32 -100 33 -260 34 -108 0 -169 4 -177 11 -9 9 3 13 49 18 46 6 63 4 69 -6 6 -9 9 -7 9 9 0 19 -5 21 -42 18 -24 -1 -43 -3 -43 -5 0 -1 -9 -3 -20 -4 -11 -2 -33 -7 -49 -11 -21 -6 -27 -5 -22 4 4 6 2 11 -3 11 -6 0 -11 -5 -11 -11 0 -5 -4 -8 -9 -4 -6 3 -13 0 -18 -8 -4 -7 -27 -19 -50 -27 -24 -7 -43 -19 -43 -26 0 -6 -6 -14 -14 -17 -30 -12 -5 68 26 84 16 8 23 8 29 -2 8 -13 13 -5 10 15 -1 4 10 5 24 2 17 -4 24 -3 20 4 -6 10 7 13 58 12 16 0 25 4 21 9 -4 7 7 8 30 4 23 -5 36 -3 36 4 0 16 72 10 96 -8 18 -14 19 -19 8 -29 -27 -25 -13 -32 65 -32 44 0 87 -3 97 -7 13 -5 15 -3 9 7 -6 10 -3 11 16 6 13 -4 34 -7 46 -7 12 0 28 -8 35 -18 8 -11 27 -23 43 -27 17 -4 66 -25 110 -48 44 -22 87 -41 95 -41 8 0 15 -6 15 -14 0 -8 6 -16 13 -19 8 -2 10 2 6 15 -9 25 -33 43 -50 36 -8 -3 -14 1 -14 11 0 9 -6 17 -12 17 -7 1 -17 2 -23 3 -5 0 -20 11 -32 24 -24 23 -49 31 -37 10 4 -7 3 -8 -5 -4 -6 4 -9 11 -6 15 2 5 -20 16 -49 25 -30 10 -57 23 -59 30 -5 13 -112 36 -170 36 -20 0 -38 4 -42 10 -3 5 -12 7 -21 3 -8 -3 -25 3 -37 14 -20 18 -29 20 -94 12 -143 -16 -283 -68 -423 -157 -91 -58 -263 -241 -309 -329 -26 -50 9 -19 53 47 26 39 58 76 73 83 34 15 80 61 75 75 -2 6 9 21 24 34 15 13 32 28 38 33 31 30 172 115 190 115 2 0 2 -9 -1 -20 -3 -12 -20 -28 -37 -37 -67 -35 -136 -87 -136 -102 0 -10 -5 -22 -12 -29 -9 -9 -9 -12 0 -12 7 0 12 -5 12 -11 0 -6 -6 -9 -14 -6 -18 7 -98 -73 -156 -155 -27 -38 -45 -55 -55 -52 -18 7 -18 14 0 38 10 14 15 15 15 6 0 -10 7 -7 23 9 14 15 18 25 10 28 -7 2 -10 10 -7 18 3 8 11 12 18 9 12 -5 161 144 153 152 -2 3 -35 -26 -72 -63 -37 -37 -72 -68 -78 -68 -6 0 -34 -32 -61 -72 -38 -54 -54 -69 -63 -61 -17 13 -17 -4 -1 -20 10 -10 7 -16 -10 -28 -12 -8 -20 -19 -17 -24 2 -4 -4 -19 -15 -33 -12 -15 -15 -24 -8 -23 24 3 38 17 38 37 0 10 5 19 10 19 6 0 10 6 10 14 0 8 5 18 12 22 8 5 9 2 4 -12 -17 -40 -17 -59 -1 -31 9 15 14 36 11 45 -3 9 -1 24 4 32 7 11 10 11 10 2 0 -7 5 -10 10 -7 14 9 13 5 -21 -70 -23 -51 -33 -65 -40 -54 -7 12 -9 11 -9 -2 0 -9 -11 -20 -24 -23 -20 -5 -26 -17 -39 -73 -27 -118 -29 -153 -11 -181 10 -15 18 -54 21 -96 5 -81 12 -100 14 -35 1 24 5 58 10 74 5 20 6 7 2 -36 -3 -36 0 -83 6 -104 6 -21 8 -41 6 -44 -3 -2 -8 10 -11 27 -8 39 -19 40 -38 4 -12 -23 -12 -35 -1 -77 20 -75 39 -124 76 -196 32 -61 51 -109 44 -109 -2 0 -18 26 -36 58 -18 31 -39 62 -46 67 -17 14 -35 64 -27 77 5 7 2 8 -6 3 -10 -6 -12 -3 -8 13 4 12 2 20 -2 17 -11 -7 -23 51 -14 66 4 7 3 9 -3 6 -13 -8 -26 53 -17 78 5 12 4 16 -3 12 -22 -14 -30 171 -13 283 16 104 41 200 51 194 5 -3 6 2 3 10 -7 19 53 148 106 225 55 81 157 190 234 248 86 64 244 139 356 167 139 36 338 36 475 1z m-195 -55 c0 -5 -7 -10 -15 -10 -8 0 -15 5 -15 10 0 6 7 10 15 10 8 0 15 -4 15 -10z m88 3 c-10 -2 -18 -9 -18 -14 0 -5 -12 -8 -27 -8 -22 1 -24 2 -8 7 20 5 20 5 0 13 -14 5 -7 7 25 7 25 0 37 -2 28 -5z m-791 -26 c-12 -13 -25 -22 -29 -20 -10 5 24 43 39 43 7 0 3 -10 -10 -23z m880 7 c-3 -3 -12 -4 -19 -1 -8 3 -5 6 6 6 11 1 17 -2 13 -5z m-391 -39 c18 -28 12 -45 -15 -38 -10 3 -22 0 -25 -6 -4 -6 -16 -11 -27 -11 -10 0 -27 -4 -37 -9 -28 -15 -76 -34 -90 -37 -8 -1 -22 -10 -31 -18 -10 -9 -20 -14 -23 -11 -3 3 -13 -4 -23 -15 -10 -11 -24 -20 -31 -20 -7 0 -18 -9 -24 -20 -6 -11 -17 -20 -25 -20 -8 0 -18 -7 -23 -16 -12 -22 -21 -5 -15 28 7 35 100 102 129 92 14 -4 16 -3 5 4 -10 7 1 17 48 38 33 15 61 33 61 40 0 6 15 15 33 20 17 4 43 11 57 15 14 3 28 7 32 8 4 0 15 -10 24 -24z m481 -1 c-3 -3 -12 -4 -19 -1 -8 3 -5 6 6 6 11 1 17 -2 13 -5z m-363 -13 c4 -5 -3 -7 -14 -4 -23 6 -26 13 -6 13 8 0 17 -4 20 -9z m130 0 c2 -3 -22 -6 -54 -6 -32 0 -56 3 -54 6 2 4 26 7 54 7 28 0 52 -3 54 -7z m-184 -11 c0 -5 -7 -7 -15 -4 -8 4 -15 8 -15 10 0 2 7 4 15 4 8 0 15 -4 15 -10z m267 -6 c-3 -3 -12 -4 -19 -1 -8 3 -5 6 6 6 11 1 17 -2 13 -5z m-42 -15 c208 -29 399 -138 532 -304 48 -61 115 -179 127 -225 4 -14 -6 2 -22 35 -40 83 -80 145 -95 145 -7 0 -8 -3 -2 -8 32 -24 124 -238 125 -291 0 -24 -21 2 -23 28 -1 11 -5 21 -10 21 -4 0 -6 4 -3 8 7 11 -48 125 -68 141 -9 8 -16 22 -16 32 0 10 -7 22 -16 27 -11 6 -15 17 -11 31 4 17 -9 37 -59 90 -35 37 -61 70 -59 73 8 8 -124 92 -191 121 -90 40 -244 76 -244 58 0 -6 5 -11 12 -11 6 0 8 -3 5 -7 -4 -3 -16 2 -28 13 -18 16 -35 19 -103 17 -105 -3 -126 -8 -126 -33 0 -11 -6 -20 -12 -20 -7 0 -23 -3 -35 -6 -33 -9 -29 14 4 27 16 6 35 16 43 24 28 25 154 31 275 14z m-535 -13 c0 -2 -7 -7 -16 -10 -8 -3 -12 -2 -9 4 6 10 25 14 25 6z m358 -13 c-10 -2 -28 -2 -40 0 -13 2 -5 4 17 4 22 1 32 -1 23 -4z m105 0 c-7 -2 -19 -2 -25 0 -7 3 -2 5 12 5 14 0 19 -2 13 -5z m-514 -16 c-2 -1 -13 -9 -24 -17 -19 -14 -19 -14 -6 3 7 9 18 17 24 17 6 0 8 -1 6 -3z m229 -18 c-8 -12 -32 -29 -53 -38 -220 -90 -389 -280 -450 -504 -16 -60 -30 -78 -47 -61 -7 6 30 127 56 188 36 82 100 168 187 250 74 70 109 95 192 136 115 56 137 62 115 29z m389 15 c-3 -3 -12 -4 -19 -1 -8 3 -5 6 6 6 11 1 17 -2 13 -5z m-52 -19 c22 -4 49 -6 60 -6 10 0 25 -5 32 -11 7 -5 20 -8 28 -4 9 3 13 2 10 -4 -3 -6 1 -7 9 -4 9 3 23 -2 32 -11 14 -13 19 -14 26 -3 8 10 9 9 5 -4 -4 -12 2 -18 26 -24 17 -3 37 -13 45 -20 15 -16 36 -19 27 -4 -3 6 -1 10 5 10 7 0 10 -6 7 -14 -3 -8 2 -16 14 -19 10 -3 19 -10 19 -15 0 -14 -33 -8 -38 6 -2 7 -10 12 -17 12 -8 0 -21 7 -29 16 -9 8 -16 12 -16 8 0 -3 -6 -2 -12 4 -15 12 -157 57 -210 66 -27 5 -38 3 -38 -5 0 -7 -8 -5 -20 6 -17 16 -33 17 -121 12 -110 -6 -125 -1 -33 11 61 8 119 7 189 -3z m184 -11 c12 -11 -8 -10 -39 2 l-35 14 35 -6 c19 -4 37 -8 39 -10z m-809 -9 c-7 -8 -18 -15 -24 -15 -6 0 -2 7 8 15 25 19 32 19 16 0z m481 -7 c0 -10 2 -10 6 0 7 18 72 14 99 -7 13 -10 20 -21 17 -25 -10 -10 -43 -7 -43 4 0 15 -57 12 -63 -2 -4 -10 -8 -9 -16 2 -8 12 -14 13 -30 3 -11 -7 -27 -10 -36 -7 -8 3 -15 1 -15 -5 0 -6 -11 -8 -28 -5 -19 4 -34 0 -45 -10 -22 -23 -31 -3 -9 23 25 30 161 54 163 29z m-182 -30 c-13 -21 -41 -42 -75 -57 -61 -27 -70 -35 -79 -76 -7 -27 -6 -28 6 -13 21 27 135 78 224 100 65 17 100 20 190 15 152 -7 276 -52 384 -141 240 -197 317 -530 186 -804 -49 -104 -97 -163 -202 -248 -57 -46 -130 -85 -160 -83 -11 0 -6 5 12 11 17 6 44 20 60 32 17 11 32 21 35 21 5 0 22 14 86 68 18 16 50 52 71 80 20 29 40 54 44 57 18 15 68 134 85 205 12 53 19 195 12 240 -13 73 -48 176 -58 170 -5 -3 -18 11 -28 32 -31 65 -45 83 -108 144 -78 76 -130 110 -229 150 -70 28 -94 33 -195 37 -87 3 -131 0 -180 -13 -69 -18 -173 -66 -203 -93 -18 -16 -20 -15 -38 7 -15 19 -17 26 -7 32 7 4 10 10 8 13 -3 2 -14 -2 -24 -10 -12 -9 -15 -14 -7 -14 8 0 -22 -37 -65 -82 -44 -46 -90 -104 -104 -131 -15 -27 -30 -45 -37 -42 -7 2 -13 1 -13 -3 0 -4 -10 -12 -22 -17 -17 -8 -27 -28 -42 -86 -19 -72 -19 -78 -3 -111 19 -40 21 -58 8 -58 -6 0 -6 -12 -2 -27 8 -32 7 -79 -3 -109 -4 -13 4 -54 20 -104 14 -45 23 -92 20 -105 -9 -37 124 -225 159 -225 7 0 16 -6 19 -12 5 -10 7 -10 12 0 8 18 17 15 54 -18 39 -35 32 -40 -12 -9 -27 19 -54 20 -32 0 28 -24 103 -60 109 -51 8 12 42 13 49 1 3 -4 -6 -6 -19 -3 -18 3 -25 0 -25 -12 0 -14 24 -22 53 -17 5 1 6 -3 2 -9 -4 -6 4 -10 19 -10 14 0 26 -4 26 -10 0 -5 9 -10 21 -10 11 0 30 -5 42 -12 21 -11 30 -12 107 -17 28 -2 31 -4 15 -10 -11 -5 -31 -4 -43 0 -13 5 -28 7 -33 4 -5 -3 -19 -1 -31 6 -12 6 -34 13 -48 14 -14 1 -44 10 -66 20 -193 85 -315 197 -394 360 -61 126 -75 190 -74 345 0 126 2 141 32 230 43 124 105 221 191 301 68 63 118 102 123 97 2 -2 17 7 35 20 36 25 131 71 151 71 8 1 5 -10 -9 -31z m992 -5 c13 -16 12 -17 -3 -4 -10 7 -18 15 -18 17 0 8 8 3 21 -13z m-1721 -7 c0 -2 -7 -6 -15 -10 -8 -3 -15 -1 -15 4 0 6 7 10 15 10 8 0 15 -2 15 -4z m10 -20 c0 -2 -8 -10 -17 -17 -16 -13 -17 -12 -4 4 13 16 21 21 21 13z m1270 -37 c0 -6 -7 -3 -16 5 -8 9 -22 16 -30 16 -8 0 -14 5 -14 10 0 6 13 4 30 -5 17 -9 30 -20 30 -26z m495 1 c10 -11 16 -20 13 -20 -3 0 -13 9 -23 20 -10 11 -16 20 -13 20 3 0 13 -9 23 -20z m45 -1 c0 -6 -4 -7 -10 -4 -5 3 -10 11 -10 16 0 6 5 7 10 4 6 -3 10 -11 10 -16z m-1464 -33 c-20 -18 -36 -38 -36 -44 0 -6 -9 -16 -20 -22 -11 -6 -20 -16 -20 -23 0 -7 -9 -21 -21 -30 -11 -10 -18 -21 -14 -25 3 -3 10 0 15 8 7 11 10 11 10 2 0 -7 -12 -18 -26 -24 -15 -7 -27 -23 -31 -40 -3 -15 -9 -28 -14 -28 -4 0 -11 -9 -14 -21 -4 -11 -9 -19 -11 -16 -8 8 67 147 84 156 9 5 14 13 10 16 -4 4 7 20 23 36 16 15 29 33 29 39 0 5 6 10 14 10 8 0 18 9 21 20 3 11 13 20 21 20 10 0 2 -13 -20 -34z m304 30 c0 -2 -7 -7 -16 -10 -8 -3 -12 -2 -9 4 6 10 25 14 25 6z m666 -12 c18 -14 18 -14 -6 -3 -31 14 -36 19 -24 19 6 0 19 -7 30 -16z m131 10 c-3 -3 -12 -4 -19 -1 -8 3 -5 6 6 6 11 1 17 -2 13 -5z m-314 -34 c96 -30 83 -42 -15 -13 -70 20 -99 23 -179 20 -95 -5 -239 -40 -239 -58 0 -5 -8 -9 -19 -9 -17 0 -78 -36 -106 -63 -7 -7 -27 -26 -46 -43 -51 -47 -80 -87 -104 -144 -9 -19 -19 -42 -24 -50 -21 -39 -35 -135 -35 -240 -1 -102 2 -124 28 -195 16 -44 39 -93 50 -109 71 -101 140 -164 225 -206 39 -19 71 -38 71 -42 0 -5 8 -8 17 -8 9 0 13 -3 10 -7 -4 -3 -17 -2 -30 4 -99 46 -147 75 -198 122 -218 196 -267 506 -123 766 37 66 155 183 224 222 51 29 151 65 210 77 55 10 216 -3 283 -24z m-753 10 c0 -5 -5 -10 -11 -10 -5 0 -7 5 -4 10 3 6 8 10 11 10 2 0 4 -4 4 -10z m1055 -20 c10 -11 22 -17 27 -14 5 3 1 12 -9 20 -10 7 -13 14 -6 14 7 0 37 -26 68 -57 53 -54 68 -83 44 -83 -8 0 -8 -5 1 -15 7 -8 10 -15 7 -15 -3 0 -43 38 -89 85 -46 47 -79 85 -72 85 6 0 19 -9 29 -20z m392 -26 c12 -26 12 -26 -7 -9 -20 18 -26 35 -12 35 4 0 12 -12 19 -26z m-1487 6 c0 -5 -5 -10 -11 -10 -5 0 -7 5 -4 10 3 6 8 10 11 10 2 0 4 -4 4 -10z m933 -35 c68 -46 112 -83 107 -89 -3 -2 -25 13 -48 34 -24 21 -61 46 -83 55 -21 10 -39 22 -39 27 0 14 9 10 63 -27z m163 3 l29 -31 -37 28 c-39 28 -45 35 -30 35 5 0 21 -14 38 -32z m-1254 -10 c-7 -7 -12 -8 -12 -2 0 14 12 26 19 19 2 -3 -1 -11 -7 -17z m110 -20 c-7 -7 -12 -8 -12 -2 0 14 12 26 19 19 2 -3 -1 -11 -7 -17z m1577 -43 c0 -5 -4 -3 -9 5 -5 8 -9 22 -9 30 0 16 17 -16 18 -35z m-1682 -17 c-40 -93 -77 -167 -72 -145 7 33 64 157 72 157 3 0 3 -6 0 -12z m1263 -80 c0 -5 -13 7 -30 25 -16 19 -30 39 -30 43 1 11 60 -57 60 -68z m140 48 c0 -8 11 -27 24 -43 12 -15 21 -34 19 -40 -3 -7 0 -13 5 -13 5 0 13 -16 16 -35 4 -19 11 -35 17 -35 6 0 8 -4 5 -8 -7 -11 21 -161 34 -184 17 -30 11 -33 -15 -8 -16 15 -21 26 -14 30 17 11 -28 179 -72 265 -43 85 -43 85 -29 85 6 0 10 -6 10 -14z m241 -3 c13 -16 12 -17 -3 -4 -10 7 -18 15 -18 17 0 8 8 3 21 -13z m38 -61 c-5 -2 -9 -8 -9 -13 0 -6 4 -8 10 -4 10 6 35 -73 26 -82 -7 -8 -25 40 -19 50 3 5 -5 15 -16 24 -16 11 -19 18 -11 28 6 7 8 21 4 31 -3 11 1 8 10 -6 8 -14 10 -26 5 -28z m-389 -27 c0 -8 -4 -15 -10 -15 -5 0 -7 7 -4 15 4 8 8 15 10 15 2 0 4 -7 4 -15z m-1302 -16 c3 -12 2 -12 -7 1 -8 12 -12 10 -20 -10 -9 -22 -10 -23 -10 -4 -1 35 28 46 37 13z m1762 -33 c0 -26 -6 -18 -14 19 -5 22 -4 26 4 15 5 -8 10 -24 10 -34z m145 -103 c4 -32 12 -64 18 -72 10 -12 9 -12 -10 -2 -13 6 -23 21 -23 32 0 13 -4 18 -12 13 -10 -6 -10 -5 -1 8 9 11 11 28 4 61 -4 26 -6 49 -2 52 3 3 -1 10 -8 15 -9 5 -11 15 -6 26 6 15 10 9 20 -28 7 -25 16 -72 20 -105z m-1997 100 c-7 -16 -19 -28 -25 -26 -7 3 -13 0 -13 -6 0 -6 4 -11 9 -11 9 0 5 -159 -5 -189 -4 -11 -8 -10 -24 4 -14 13 -20 31 -20 60 0 62 29 183 46 189 8 3 14 0 14 -7 0 -7 5 -4 11 6 16 28 21 14 7 -20z m710 4 c16 -19 18 -545 3 -560 -8 -8 -11 69 -11 276 l0 287 -51 0 -50 0 3 -145 c2 -80 0 -145 -4 -145 -5 0 -8 5 -8 11 0 6 -26 72 -57 145 l-57 134 -38 0 -38 0 0 -280 0 -280 51 0 51 0 -4 150 c-2 83 -1 147 2 143 4 -5 31 -72 61 -150 l54 -143 38 0 c26 0 37 -4 37 -15 0 -12 -9 -14 -36 -11 -39 5 -64 21 -64 42 0 8 -4 14 -8 14 -5 0 -17 27 -27 61 -14 45 -21 56 -27 44 -5 -8 -8 -23 -7 -33 9 -96 -15 -133 -83 -125 -23 3 -47 10 -53 15 -6 5 -10 115 -11 286 -1 307 -2 301 64 302 42 0 70 -29 101 -109 13 -34 28 -64 32 -66 4 -3 7 27 8 65 1 82 15 113 49 107 12 -2 25 0 28 4 6 10 35 -3 52 -24z m1308 17 c-3 -23 -13 -26 -18 -6 -3 11 0 19 7 19 7 0 12 -6 11 -13z m-1789 -26 c-8 -18 -19 -58 -26 -88 -20 -85 -22 -91 -33 -84 -6 4 -6 10 1 17 6 6 11 18 11 26 0 11 -4 10 -16 -5 -15 -18 -15 -17 -10 14 13 77 38 143 52 138 7 -3 16 -1 19 4 14 22 14 8 2 -22z m798 15 c12 -12 15 -25 10 -52 -9 -50 -20 -60 -73 -63 l-47 -3 -3 -47 -2 -48 37 0 c50 0 63 -10 73 -54 7 -32 5 -39 -16 -55 -14 -11 -33 -17 -44 -14 -42 11 -51 -13 -49 -124 2 -124 -6 -136 -83 -130 -83 7 -79 -6 -76 309 3 235 5 280 18 288 8 5 65 10 127 10 91 0 115 -3 128 -17z m348 3 c12 -7 17 -24 17 -51 0 -46 -14 -65 -46 -65 -13 0 -25 -4 -28 -9 -3 -4 -6 -106 -7 -225 -1 -145 -5 -219 -13 -225 -6 -5 -35 -12 -65 -15 -89 -10 -90 -8 -84 229 5 230 3 249 -33 242 -34 -6 -54 17 -54 62 0 40 11 56 45 64 39 9 250 4 268 -7z m341 -8 c-3 -10 0 -25 6 -33 12 -15 11 -16 -12 -19 -7 0 -16 -12 -20 -26 -4 -15 -5 -9 -1 15 4 22 7 49 7 61 1 11 7 21 14 21 7 0 10 -7 6 -19z m-1644 -31 c0 -7 -4 -6 -10 3 -7 12 -11 10 -19 -10 -5 -14 -10 -18 -10 -9 -1 18 19 40 31 33 4 -3 8 -11 8 -17z m1589 -27 c0 -9 -4 -8 -9 5 -5 11 -9 27 -9 35 0 9 4 8 9 -5 5 -11 9 -27 9 -35z m372 8 c1 -18 1 -36 0 -40 0 -4 4 -19 9 -32 5 -15 5 -28 0 -31 -10 -6 -16 13 -25 83 -5 35 -3 52 4 52 6 0 12 -15 12 -32z m-2024 -10 c-3 -8 -6 -5 -6 6 -1 11 2 17 5 13 3 -3 4 -12 1 -19z m1913 0 c0 -16 -3 -19 -11 -11 -6 6 -8 16 -5 22 11 17 16 13 16 -11z m-193 -50 c-2 -56 -13 -63 -19 -14 -2 22 0 32 7 29 5 -3 4 0 -2 8 -17 17 -16 26 2 26 11 0 14 -12 12 -49z m-1700 10 c-3 -7 -5 -2 -5 12 0 14 2 19 5 13 2 -7 2 -19 0 -25z m1640 -10 c-3 -7 -5 -2 -5 12 0 14 2 19 5 13 2 -7 2 -19 0 -25z m264 -14 c-5 -21 -9 -30 -10 -19 -1 24 10 67 15 62 3 -2 0 -22 -5 -43z m-82 -139 c0 -44 -3 -97 -7 -119 -4 -22 -7 34 -7 125 0 95 3 145 7 119 3 -25 7 -81 7 -125z m-152 118 c-3 -10 -5 -4 -5 12 0 17 2 24 5 18 2 -7 2 -21 0 -30z m-1648 -14 c-17 -10 -5 -240 15 -314 9 -33 37 -104 62 -157 25 -54 43 -102 39 -107 -3 -6 12 -22 35 -36 22 -14 40 -31 40 -39 0 -8 7 -17 15 -20 9 -3 23 -22 31 -41 14 -33 33 -52 20 -20 -7 19 8 20 23 2 16 -20 4 -27 -43 -27 -36 0 -47 6 -85 46 -23 25 -45 43 -49 40 -9 -10 20 -56 36 -56 7 0 16 -9 19 -20 4 -17 14 -20 54 -20 36 0 49 -4 49 -14 0 -17 119 -93 201 -130 128 -56 296 -82 432 -67 31 4 57 6 57 4 0 -16 -29 -28 -58 -25 -25 3 -33 1 -27 -8 4 -7 17 -9 34 -5 20 5 23 4 14 -5 -6 -7 -45 -14 -86 -17 -71 -5 -75 -4 -71 14 3 12 0 20 -8 21 -7 1 -32 5 -56 10 -36 8 -46 6 -68 -10 -27 -22 -44 -18 -25 6 10 12 8 16 -11 21 -13 3 -32 10 -43 15 -11 4 -40 16 -65 25 -25 10 -51 20 -59 23 -9 3 -12 1 -8 -5 5 -7 0 -9 -13 -6 -33 9 -22 -6 17 -22 20 -8 44 -13 55 -9 12 3 18 0 18 -10 0 -9 7 -16 15 -16 8 0 15 -5 15 -10 0 -6 8 -5 20 2 17 11 22 10 30 -2 5 -8 6 -18 3 -23 -3 -5 -9 -3 -13 3 -4 7 -15 10 -23 7 -8 -3 -23 0 -33 7 -11 8 -34 17 -53 21 -19 4 -41 14 -49 22 -8 8 -23 12 -33 10 -12 -3 -19 0 -19 9 0 8 -3 13 -7 12 -5 -1 -18 3 -31 11 -13 7 -28 11 -34 9 -15 -5 73 -56 133 -78 27 -9 47 -19 44 -22 -7 -7 147 -44 167 -40 9 2 15 9 12 16 -3 8 2 16 10 19 9 4 16 2 16 -3 0 -5 7 -16 16 -24 12 -13 39 -16 124 -16 104 0 110 1 125 24 11 16 22 22 36 19 15 -4 18 -2 13 11 -4 10 -1 16 9 16 9 0 14 -9 13 -23 -1 -16 -8 -22 -25 -24 -13 0 -31 -8 -39 -17 -15 -15 -15 -16 4 -16 11 0 24 3 28 7 12 12 56 14 56 3 0 -6 7 -4 16 4 8 9 27 16 40 16 14 0 43 9 64 20 22 11 40 16 40 10 0 -6 13 -4 31 5 17 9 33 14 36 11 14 -14 -195 -80 -307 -97 -114 -16 -270 -6 -389 26 -94 25 -260 104 -317 150 l-29 24 50 -1 c32 0 60 -7 77 -19 27 -20 53 -26 44 -10 -4 5 4 7 16 4 16 -3 12 3 -14 19 -21 12 -52 33 -71 44 l-34 21 5 -22 c4 -21 0 -23 -43 -27 -29 -2 -50 1 -57 9 -6 7 -7 13 -2 13 4 0 -3 11 -16 25 -23 24 -47 35 -35 15 11 -18 -1 -11 -21 12 -10 12 -13 18 -6 14 6 -4 12 -3 12 2 0 12 -35 43 -42 37 -3 -3 -13 5 -24 17 l-19 23 24 -20 24 -20 -23 33 c-22 29 -39 45 -25 22 10 -16 -1 -11 -16 7 -10 11 -10 14 -1 9 15 -9 15 -1 0 24 -7 10 -10 22 -6 25 11 12 57 -7 63 -26 4 -10 13 -19 21 -19 11 0 13 6 9 23 -11 34 -22 41 -60 39 -32 -2 -35 0 -36 25 -2 41 -6 65 -14 88 -7 20 -6 20 9 1 9 -11 16 -26 16 -33 0 -7 5 -13 12 -13 9 0 9 -3 0 -12 -17 -17 -15 -25 8 -31 17 -4 20 -2 15 13 -9 27 30 47 44 23 12 -20 14 -13 5 12 -4 9 -18 21 -31 26 -20 7 -24 15 -21 34 3 13 1 22 -4 19 -4 -3 -17 16 -28 41 -22 51 -25 75 -11 75 6 0 6 13 -1 33 -5 17 -10 39 -10 47 0 8 -2 22 -5 30 -4 11 -8 8 -13 -10 -6 -20 -7 -16 -7 17 1 24 5 37 9 30 4 -7 8 12 8 41 0 32 -4 52 -11 52 -6 0 -9 -9 -6 -20 3 -11 1 -18 -4 -14 -14 8 -11 34 6 40 17 7 21 69 5 79 -5 3 -10 14 -9 23 0 14 2 13 9 -3 9 -20 9 -20 10 0 2 11 2 25 1 30 -1 6 6 1 14 -9 11 -14 12 -22 4 -27z m1606 -163 c-3 -49 -10 -97 -15 -105 -17 -31 -23 41 -12 129 7 48 13 109 13 136 l1 49 10 -60 c5 -33 6 -100 3 -149z m22 132 c-2 -13 -4 -3 -4 22 0 25 2 35 4 23 2 -13 2 -33 0 -45z m31 -106 c-4 -102 -3 -132 9 -148 19 -26 0 -125 -34 -179 -15 -22 -17 -55 -4 -55 5 0 11 -12 14 -27 6 -34 -38 -105 -122 -195 -43 -46 -70 -67 -91 -70 -20 -3 -30 0 -30 9 0 21 -14 15 -25 -9 -6 -13 -17 -22 -27 -20 -16 2 -32 -13 -33 -33 0 -5 -9 -9 -20 -8 -10 1 -28 -3 -39 -9 -18 -10 -18 -11 -1 -20 13 -8 30 -1 78 31 40 28 68 41 85 39 24 -3 22 -6 -29 -43 -78 -59 -148 -97 -161 -89 -6 4 -8 3 -5 -3 9 -15 -21 -25 -40 -14 -10 5 -25 3 -41 -5 -13 -7 -31 -10 -38 -7 -22 8 3 33 33 33 13 0 22 4 19 9 -4 5 2 7 12 5 9 -3 35 2 56 11 30 13 36 19 25 26 -19 12 -32 11 -24 -1 6 -10 -7 -14 -34 -11 -7 2 -11 -2 -8 -7 3 -4 -7 -6 -24 -4 -29 4 -29 5 22 28 173 80 330 237 421 419 37 74 43 95 24 95 -20 0 -20 11 0 80 8 30 18 110 21 178 3 67 8 122 11 122 3 0 3 -58 0 -128z m-118 73 c22 -23 23 -30 17 -110 -3 -47 -2 -85 2 -85 4 0 13 -10 18 -22 22 -47 -75 -262 -122 -270 -14 -3 -25 -1 -25 3 0 5 -8 5 -17 2 -11 -4 -12 -8 -5 -11 7 -2 12 -8 12 -14 0 -6 -7 -8 -15 -4 -8 3 -15 1 -15 -3 0 -5 -18 -26 -40 -47 -22 -21 -40 -44 -40 -52 0 -7 -4 -10 -10 -7 -18 11 -11 22 55 90 36 36 65 73 65 81 0 8 5 14 11 14 5 0 7 4 4 10 -3 5 3 15 15 22 11 7 20 20 20 28 0 9 7 26 16 38 8 12 12 22 8 22 -5 0 -3 5 4 12 7 7 12 23 12 36 0 13 5 33 11 44 7 12 13 42 15 67 2 25 6 64 7 86 3 27 -2 45 -13 57 -16 17 -17 14 -18 -64 -1 -46 -4 -94 -7 -108 -3 -14 -7 -34 -10 -45 -19 -89 -91 -216 -163 -290 -78 -80 -162 -140 -185 -132 -6 2 0 8 16 12 15 4 27 10 27 14 0 4 23 24 51 46 149 113 244 303 256 508 3 53 9 97 13 97 3 0 17 -11 30 -25z m359 -14 c12 -10 13 -15 4 -18 -7 -3 -13 -13 -13 -23 0 -10 -4 -21 -9 -24 -5 -4 -9 19 -9 51 1 32 3 51 6 43 2 -8 12 -21 21 -29z m-1882 -38 c-2 -16 -4 -5 -4 22 0 28 2 40 4 28 2 -13 2 -35 0 -50z m1619 -25 c-19 -224 -96 -402 -236 -545 -37 -37 -48 -56 -44 -70 6 -16 5 -17 -9 -3 -15 14 -11 22 51 86 126 131 203 305 224 507 7 59 14 107 16 107 3 0 1 -37 -2 -82z m-1739 0 c-3 -8 -6 -5 -6 6 -1 11 2 17 5 13 3 -3 4 -12 1 -19z m2100 -84 c-3 -40 -7 -77 -11 -82 -4 -6 -7 -27 -8 -47 -1 -19 -7 -40 -14 -46 -7 -6 -11 -16 -8 -23 6 -15 -31 -104 -53 -129 -15 -16 -17 -16 -29 2 -11 16 -11 28 2 77 25 91 35 136 39 174 6 67 24 140 37 157 8 9 14 9 30 0 17 -11 19 -20 15 -83z m-105 44 c-14 -14 -16 -48 -3 -48 5 0 12 10 14 23 5 19 5 19 4 -3 -2 -29 -30 -34 -35 -7 -3 17 13 47 26 47 3 0 1 -5 -6 -12z m-1799 -250 c32 -67 127 -213 127 -194 0 5 27 -17 59 -47 109 -101 262 -176 402 -198 103 -16 270 -6 339 20 64 24 63 24 55 11 -4 -6 11 1 32 16 21 14 37 30 36 35 -2 4 4 6 11 3 19 -7 68 25 59 39 -4 6 -1 7 6 3 7 -5 20 -1 29 7 9 8 27 18 38 21 12 4 54 40 93 81 82 86 114 101 50 23 -97 -115 -244 -212 -394 -260 -96 -31 -297 -36 -406 -10 -160 39 -295 116 -402 232 -103 111 -187 281 -201 405 -4 36 -1 28 13 -32 11 -44 35 -114 54 -155z m47 210 c0 -23 18 -87 39 -141 9 -23 14 -26 30 -18 17 9 23 4 51 -47 48 -84 169 -200 258 -245 41 -20 82 -37 92 -37 10 0 21 -4 24 -9 3 -4 20 -11 37 -15 18 -3 30 -8 27 -11 -3 -3 -41 6 -84 19 -51 16 -92 24 -114 20 -30 -4 -43 1 -86 34 -39 30 -58 39 -78 35 -33 -7 -80 35 -137 121 -39 60 -49 100 -26 109 8 4 9 8 2 14 -6 4 -12 19 -12 31 -1 13 -10 30 -20 38 -10 7 -13 14 -6 14 6 0 9 9 6 20 -3 11 -8 18 -12 15 -4 -2 -8 14 -8 36 0 21 3 39 8 39 5 0 9 -10 9 -22z m-193 -65 c-3 -10 -5 -4 -5 12 0 17 2 24 5 18 2 -7 2 -21 0 -30z m1935 25 c-7 -7 -12 -20 -12 -30 0 -10 -4 -18 -10 -18 -13 0 -13 3 2 35 6 14 16 25 22 25 6 0 5 -5 -2 -12z m-1932 -123 c7 -22 17 -46 22 -52 6 -7 8 -23 5 -35 -3 -11 -1 -30 5 -41 8 -15 7 -18 -3 -12 -9 6 -10 3 -5 -11 5 -10 11 -28 13 -39 10 -41 -22 17 -60 105 -40 95 -52 148 -42 180 7 21 9 20 30 -16 12 -22 28 -57 35 -79z m40 69 c0 -8 -4 -12 -10 -9 -5 3 -10 13 -10 21 0 8 5 12 10 9 6 -3 10 -13 10 -21z m1901 3 c-10 -9 -11 -8 -5 6 3 10 9 15 12 12 3 -3 0 -11 -7 -18z m-1934 -19 c-3 -8 -6 -5 -6 6 -1 11 2 17 5 13 3 -3 4 -12 1 -19z m1903 -28 c-12 -16 -26 -30 -32 -30 -10 0 -5 7 27 47 21 26 25 12 5 -17z m25 -19 c-3 -12 -10 -21 -15 -21 -5 0 -4 11 2 25 13 29 23 26 13 -4z m422 -768 c-1 -148 -2 -27 -2 267 0 294 1 415 2 268 2 -148 2 -388 0 -535z m-2313 717 l7 -25 -15 25 c-9 14 -15 32 -15 40 0 13 1 13 8 0 5 -8 12 -26 15 -40z m1850 3 c-9 -9 -13 -25 -10 -37 4 -15 -1 -28 -14 -39 -21 -18 -27 -47 -10 -47 6 0 10 6 10 14 0 7 7 19 15 26 13 11 14 10 9 -6 -4 -10 -13 -27 -19 -37 -12 -17 -14 -17 -29 -2 -18 19 -20 31 -6 40 6 4 7 11 4 17 -4 6 -2 8 4 4 6 -3 14 -1 18 5 3 6 1 15 -6 19 -10 6 -7 15 11 38 13 16 27 27 32 25 4 -2 0 -11 -9 -20z m25 -25 c-9 -16 -14 -19 -17 -9 -2 7 2 17 9 22 20 13 21 11 8 -13z m-1833 -75 c-5 -5 -36 50 -36 64 0 4 9 -7 21 -26 11 -18 18 -35 15 -38z m-134 -45 c-6 -6 -15 -8 -19 -4 -4 4 -1 11 7 16 19 12 27 3 12 -12z m1873 -18 c-10 -11 -15 -23 -11 -28 4 -4 14 1 21 12 8 10 19 16 25 14 6 -2 2 -13 -10 -26 -17 -18 -25 -21 -36 -11 -25 21 -16 59 14 59 12 0 12 -4 -3 -20z m-1625 -5 c11 -13 10 -14 -4 -9 -9 3 -16 10 -16 15 0 13 6 11 20 -6z m-87 -182 c23 -24 38 -43 34 -43 -15 0 -136 146 -137 164 0 5 14 -11 31 -35 17 -24 50 -63 72 -86z m1214 81 c-9 -9 -28 6 -21 18 4 6 10 6 17 -1 6 -6 8 -13 4 -17z m518 -3 c-3 -6 -11 -11 -16 -11 -5 0 -4 6 3 14 14 16 24 13 13 -3z m-1092 -8 c-7 -2 -21 -2 -30 0 -10 3 -4 5 12 5 17 0 24 -2 18 -5z m-163 -13 c0 -5 -5 -10 -11 -10 -5 0 -7 5 -4 10 3 6 8 10 11 10 2 0 4 -4 4 -10z m670 2 c0 -4 -15 -16 -32 -26 l-33 -17 30 25 c33 29 35 30 35 18z m-80 -12 c0 -5 -8 -10 -17 -10 -15 0 -16 2 -3 10 19 12 20 12 20 0z m-573 -22 c-3 -8 -6 -5 -6 6 -1 11 2 17 5 13 3 -3 4 -12 1 -19z m260 -4 c-3 -3 -12 -4 -19 -1 -8 3 -5 6 6 6 11 1 17 -2 13 -5z m68 -4 c-3 -5 -12 -10 -18 -10 -7 0 -6 4 3 10 19 12 23 12 15 0z m-550 -30 c3 -5 -1 -10 -9 -10 -9 0 -16 5 -16 10 0 6 4 10 9 10 6 0 13 -4 16 -10z m692 4 c-3 -3 -12 -4 -19 -1 -8 3 -5 6 6 6 11 1 17 -2 13 -5z m73 -4 c0 -5 -5 -10 -11 -10 -5 0 -7 5 -4 10 3 6 8 10 11 10 2 0 4 -4 4 -10z m580 1 c0 -6 -11 -22 -25 -37 -14 -15 -25 -30 -25 -35 0 -4 -16 -17 -35 -29 -19 -12 -35 -28 -35 -35 0 -7 -7 -15 -15 -19 -29 -11 -15 10 44 67 33 31 62 66 66 77 6 20 25 28 25 11z m-1323 -26 c0 -17 -13 -20 -21 -6 -4 5 0 12 6 14 7 3 13 6 14 6 0 1 1 -6 1 -14z m33 -15 c0 -5 -2 -10 -4 -10 -3 0 -8 5 -11 10 -3 6 -1 10 4 10 6 0 11 -4 11 -10z m1305 -10 c-10 -11 -15 -23 -11 -28 4 -4 16 4 27 17 12 15 19 18 19 9 0 -8 -8 -22 -17 -31 -15 -13 -21 -13 -36 -2 -15 11 -16 17 -7 34 6 12 18 21 27 21 14 0 14 -2 -2 -20z m-1245 -32 c0 -5 -7 -3 -15 6 -8 8 -15 18 -15 22 0 3 7 1 15 -6 8 -7 15 -17 15 -22z m457 26 c-3 -3 -12 -4 -19 -1 -8 3 -5 6 6 6 11 1 17 -2 13 -5z m-572 -29 c17 -14 26 -25 20 -25 -5 1 -23 12 -40 25 -16 14 -25 25 -20 25 6 -1 24 -12 40 -25z m175 -9 c0 -11 -19 -15 -25 -6 -3 5 1 10 9 10 9 0 16 -2 16 -4z m36 -28 c-12 -7 -21 -7 -28 0 -6 6 0 10 18 10 23 0 24 -2 10 -10z m1094 -3 c11 -13 10 -14 -4 -9 -19 7 -20 0 -6 -27 8 -15 7 -19 -5 -19 -8 0 -15 -7 -15 -15 0 -8 -12 -21 -28 -29 -15 -8 -36 -23 -46 -35 -11 -12 -25 -21 -33 -21 -8 0 -11 -4 -8 -10 3 -5 1 -10 -6 -10 -7 0 -26 -11 -44 -24 -46 -35 -98 -63 -138 -74 -30 -8 -38 -7 -53 9 -12 13 -13 19 -4 19 7 0 10 8 7 20 -4 16 -1 19 17 14 23 -5 63 27 53 43 -2 4 9 18 24 31 16 13 29 19 29 13 0 -5 -9 -16 -19 -23 -12 -8 -17 -19 -12 -26 5 -9 13 -7 29 8 11 11 26 20 32 20 12 0 32 15 62 48 12 12 28 22 35 22 7 0 13 5 13 10 0 6 4 10 9 10 6 0 24 13 42 30 18 16 36 27 41 24 4 -3 8 0 8 5 0 15 5 14 20 -4z m-561 1 c-2 -2 -17 -6 -34 -10 -22 -5 -26 -4 -15 4 14 9 59 15 49 6z m-454 -16 c14 -7 8 -8 -20 -3 -22 3 -42 7 -44 9 -9 8 45 2 64 -6z m60 -10 c8 -13 -5 -13 -25 0 -13 8 -13 10 2 10 9 0 20 -4 23 -10z m302 4 c-3 -3 -12 -4 -19 -1 -8 3 -5 6 6 6 11 1 17 -2 13 -5z m138 -4 c3 -5 2 -10 -4 -10 -5 0 -13 5 -16 10 -3 6 -2 10 4 10 5 0 13 -4 16 -10z m-388 -6 c-3 -3 -12 -4 -19 -1 -8 3 -5 6 6 6 11 1 17 -2 13 -5z m130 0 c-3 -3 -12 -4 -19 -1 -8 3 -5 6 6 6 11 1 17 -2 13 -5z m66 -1 c-7 -2 -19 -2 -25 0 -7 3 -2 5 12 5 14 0 19 -2 13 -5z m162 -14 c-4 -5 -12 -9 -18 -8 -9 0 -8 2 1 6 6 2 9 10 6 15 -4 7 -2 8 5 4 6 -4 9 -12 6 -17z m-568 -5 c-3 -3 -12 -4 -19 -1 -8 3 -5 6 6 6 11 1 17 -2 13 -5z m498 -4 c3 -5 1 -10 -4 -10 -6 0 -11 5 -11 10 0 6 2 10 4 10 3 0 8 -4 11 -10z m59 -25 c3 -10 1 -15 -7 -13 -6 1 -22 -2 -35 -6 -31 -10 -40 1 -16 19 25 19 50 19 58 0z m-358 -20 c14 -13 12 -15 -15 -15 -30 0 -39 9 -24 23 10 11 23 8 39 -8z m569 -86 c-10 -15 -25 -10 -19 6 4 8 10 12 15 9 5 -3 7 -10 4 -15z m-81 -34 c-4 -8 -10 -12 -15 -9 -11 6 -2 24 11 24 5 0 7 -7 4 -15z m-160 -50 c-7 -16 -24 -21 -24 -6 0 8 7 13 27 20 1 1 0 -6 -3 -14z m55 -39 c8 -10 9 -16 1 -21 -5 -3 -10 1 -10 9 0 9 -5 16 -11 16 -7 0 -9 -10 -5 -27 l6 -28 -14 25 c-8 14 -12 28 -10 32 8 13 31 9 43 -6z"/> <path d="M1283 2623 c-21 -4 -39 -30 -28 -41 3 -3 5 0 5 6 0 7 11 12 24 12 13 0 26 7 30 15 3 8 2 14 -2 14 -4 -1 -17 -4 -29 -6z"/> <path d="M895 2553 c-112 -67 -277 -204 -263 -219 4 -3 44 27 90 66 46 40 120 95 166 123 45 27 82 54 82 59 0 13 -11 9 -75 -29z"/> <path d="M502 2040 c-14 -24 -16 -47 -2 -55 11 -7 39 45 33 63 -7 17 -16 15 -31 -8z"/> <path d="M466 1963 c-4 -9 -3 -19 2 -22 5 -3 8 -14 6 -24 -2 -14 1 -15 10 -8 7 6 12 21 10 33 -1 13 -3 26 -3 31 -2 13 -19 7 -25 -10z"/> <path d="M435 1930 c-3 -5 -1 -10 4 -10 6 0 11 5 11 10 0 6 -2 10 -4 10 -3 0 -8 -4 -11 -10z"/> <path d="M406 1851 c-4 -5 -2 -12 2 -15 5 -3 8 -16 5 -28 -3 -22 11 -57 20 -48 3 3 8 16 12 29 5 16 4 21 -4 17 -6 -4 -12 0 -12 8 -3 29 -4 34 -10 41 -4 3 -10 2 -13 -4z"/> <path d="M386 1763 c-6 -14 -5 -15 5 -6 7 7 10 15 7 18 -3 3 -9 -2 -12 -12z"/> <path d="M398 1731 c-9 -30 19 -64 28 -34 3 10 10 26 15 36 7 13 5 17 -7 17 -8 0 -13 -4 -9 -9 3 -5 1 -12 -4 -15 -5 -4 -11 2 -13 11 -3 14 -5 13 -10 -6z"/> <path d="M387 1660 c-4 -14 -2 -26 3 -28 6 -2 10 -11 11 -20 0 -11 4 -9 10 7 5 14 6 27 1 30 -5 3 -11 13 -14 21 -3 10 -7 6 -11 -10z"/> <path d="M380 1564 c0 -14 4 -22 10 -19 6 3 7 -1 4 -9 -3 -9 -1 -16 5 -16 6 0 11 12 11 26 0 17 -4 23 -12 18 -8 -5 -9 -2 -5 9 3 10 2 17 -3 17 -6 0 -10 -12 -10 -26z"/> <path d="M382 1485 c0 -16 2 -22 5 -12 2 9 2 23 0 30 -3 6 -5 -1 -5 -18z"/> <path d="M402 1475 c0 -16 2 -22 5 -12 2 9 2 23 0 30 -3 6 -5 -1 -5 -18z"/> <path d="M365 1440 c-3 -5 -1 -10 4 -10 6 0 11 -6 11 -14 0 -17 30 -49 38 -42 6 7 -30 76 -40 76 -4 0 -10 -4 -13 -10z"/> <path d="M310 1430 c0 -5 5 -10 10 -10 6 0 10 -15 10 -32 0 -18 6 -59 14 -90 8 -35 9 -59 4 -60 -24 -8 88 -284 147 -362 31 -41 25 -4 -9 53 -19 34 -33 68 -30 76 4 9 1 15 -7 15 -8 0 -26 29 -41 65 -15 36 -23 65 -17 65 5 0 9 5 9 10 0 6 -7 10 -15 10 -8 0 -15 5 -15 10 0 6 4 10 8 10 4 0 0 39 -10 88 -10 48 -18 99 -18 114 0 17 -8 31 -20 38 -14 7 -20 7 -20 0z"/> <path d="M393 1330 c12 -32 37 -49 37 -25 0 16 -30 55 -41 55 -4 0 -2 -13 4 -30z"/> <path d="M400 1278 c0 -4 5 -18 11 -32 15 -33 39 -42 39 -15 0 11 -8 23 -17 26 -10 4 -21 11 -25 17 -4 6 -8 8 -8 4z"/> <path d="M405 1190 c-6 -10 1 -14 18 -11 5 1 11 -7 14 -18 4 -17 44 -38 42 -23 -2 17 -18 46 -18 33 -1 -10 -7 -7 -20 7 -21 25 -27 27 -36 12z"/> <path d="M421 1118 c5 -18 9 -34 9 -35 0 -2 5 -3 10 -3 18 0 11 49 -9 60 -18 9 -19 8 -10 -22z"/> <path d="M466 1102 c-7 -12 10 -35 28 -38 20 -3 20 10 0 30 -18 18 -21 19 -28 8z"/> <path d="M452 1060 c25 -66 43 -106 51 -111 5 -4 7 -11 5 -15 -3 -5 10 -25 29 -44 22 -22 33 -29 33 -19 0 9 -9 24 -20 34 -11 10 -20 25 -20 33 0 8 -11 28 -26 44 -14 17 -23 36 -20 43 2 7 -5 21 -16 32 -16 13 -20 14 -16 3z"/> <path d="M500 1022 c0 -13 15 -28 33 -35 19 -7 21 0 8 22 -10 15 -41 25 -41 13z"/> <path d="M540 952 c0 -15 19 -36 34 -38 18 -3 20 4 7 25 -10 15 -41 25 -41 13z"/> <path d="M590 870 c6 -11 20 -20 31 -20 17 0 18 3 9 20 -13 25 -24 26 -16 3 6 -17 5 -17 -8 0 -18 23 -29 22 -16 -3z"/> <path d="M640 810 c0 -4 7 -13 15 -20 8 -7 15 -9 15 -5 0 4 8 1 17 -6 17 -13 17 -12 2 10 -15 23 -49 38 -49 21z"/> <path d="M701 743 c7 -10 14 -19 15 -21 1 -1 9 0 18 4 22 8 2 34 -26 34 -18 0 -19 -2 -7 -17z"/> <path d="M780 742 c0 -11 64 -72 75 -72 18 0 43 -32 38 -48 -3 -12 -2 -13 4 -5 7 10 15 10 36 0 15 -6 27 -15 27 -19 0 -3 14 -9 30 -13 17 -4 30 -11 30 -16 0 -5 12 -12 28 -15 15 -4 34 -12 42 -19 8 -7 30 -15 48 -19 17 -3 47 -9 65 -12 17 -4 39 -12 47 -19 8 -8 26 -14 40 -14 63 -1 109 -7 116 -13 11 -12 42 -9 46 3 3 9 10 9 27 -1 18 -9 29 -9 49 -1 41 19 14 29 -98 34 -144 8 -268 37 -360 84 -14 7 -31 13 -37 13 -7 0 -13 5 -13 10 0 6 -7 10 -15 10 -19 0 -117 63 -168 107 -36 32 -57 41 -57 25z"/> <path d="M737 706 c-12 -9 -14 -16 -8 -21 6 -3 11 -1 11 6 0 8 5 7 18 -3 17 -16 52 -21 52 -8 0 16 -28 30 -45 23 -13 -4 -16 -3 -11 5 9 15 5 15 -17 -2z"/> <path d="M785 650 c-3 -5 -1 -10 4 -10 6 0 11 5 11 10 0 6 -2 10 -4 10 -3 0 -8 -4 -11 -10z"/> <path d="M826 650 c-17 -6 -16 -8 10 -28 17 -12 23 -22 15 -22 -11 0 -9 -4 5 -15 16 -12 17 -16 4 -24 -8 -6 -11 -13 -7 -18 5 -4 12 -1 17 7 7 11 15 8 44 -14 20 -15 45 -29 55 -31 11 -2 29 -9 40 -15 17 -8 21 -8 21 4 0 15 -21 26 -50 26 -10 0 -20 7 -24 15 -3 8 -13 15 -22 15 -8 0 -14 5 -12 12 7 20 26 20 33 -1 3 -10 12 -22 20 -25 17 -6 45 2 45 14 0 11 -37 23 -49 16 -5 -4 -12 2 -16 13 -7 23 -42 34 -66 20 -23 -12 -26 -12 -26 6 0 8 4 15 9 15 14 0 9 15 -9 26 -10 6 -27 8 -37 4z m84 -82 c0 -13 -23 -5 -28 10 -2 7 2 10 12 6 9 -3 16 -11 16 -16z"/> <path d="M1026 532 c-3 -6 3 -17 15 -25 13 -9 16 -17 10 -22 -19 -11 -12 -23 22 -34 64 -20 109 -24 117 -11 7 11 13 10 34 -3 17 -11 35 -15 51 -11 14 3 31 2 38 -4 9 -8 12 -4 13 14 2 19 -3 24 -21 24 -13 0 -27 -4 -30 -10 -8 -14 -45 -13 -45 1 0 6 7 8 16 5 14 -5 15 -4 4 9 -16 19 -39 19 -64 0 -25 -19 -60 -19 -76 0 -11 13 -8 14 18 9 16 -3 32 -1 36 4 8 13 -34 38 -43 25 -3 -4 -19 -14 -35 -21 l-29 -13 17 25 c15 24 15 26 -4 36 -15 8 -20 8 -20 -2 0 -10 -2 -10 -9 1 -5 8 -11 9 -15 3z"/> <path d="M1600 452 c-24 -3 -30 -6 -18 -11 15 -5 13 -8 -8 -18 -22 -10 -24 -10 -19 8 8 25 -26 26 -48 1 -23 -25 -21 -33 6 -27 12 4 35 1 50 -4 23 -9 31 -7 47 9 11 11 17 20 13 21 -5 0 1 4 11 8 27 10 8 17 -34 13z"/> <path d="M1353 443 c-11 -4 -19 -33 -9 -33 15 0 66 24 66 31 0 9 -36 11 -57 2z"/> <path d="M1428 432 c-37 -22 -35 -36 3 -28 28 5 59 27 59 40 0 11 -35 4 -62 -12z"/> <path d="M1490 2500 c0 -5 5 -10 10 -10 6 0 10 5 10 10 0 6 -4 10 -10 10 -5 0 -10 -4 -10 -10z"/> <path d="M1522 2495 c4 -4 27 -9 50 -12 123 -12 288 -58 288 -79 0 -8 7 -14 15 -14 8 0 15 -4 15 -8 0 -15 85 -53 103 -46 18 7 23 24 7 24 -5 0 -10 -4 -10 -10 0 -5 -4 -10 -10 -10 -5 0 -7 6 -5 13 5 13 -75 67 -100 67 -7 0 -15 4 -17 9 -6 17 -180 62 -263 68 -44 3 -77 2 -73 -2z"/> <path d="M2040 2252 c0 -5 19 -24 43 -42 23 -19 48 -42 55 -52 7 -10 18 -18 25 -18 13 0 -55 72 -95 102 -16 10 -28 15 -28 10z"/> <path d="M2085 2165 c0 -14 5 -21 13 -18 6 3 12 -2 12 -10 0 -8 7 -18 16 -21 9 -3 12 -11 8 -18 -4 -7 -4 -10 1 -6 8 7 64 -73 87 -124 7 -16 15 -28 19 -28 3 0 17 -27 30 -60 24 -60 37 -76 35 -42 0 10 -9 26 -18 36 -20 20 -23 32 -8 41 14 9 12 45 -2 45 -9 0 -8 3 2 10 13 8 12 12 -4 27 -17 16 -18 16 -13 1 3 -9 -1 -22 -10 -30 -14 -11 -16 -10 -11 15 4 18 1 27 -8 27 -15 0 -59 58 -59 79 0 9 -9 20 -21 26 -11 5 -19 15 -18 20 2 6 -9 20 -24 31 l-27 21 0 -22z"/> <path d="M2300 1938 c0 -9 5 -20 10 -23 13 -8 13 5 0 25 -8 13 -10 13 -10 -2z"/> <path d="M2430 1720 c0 -5 5 -10 10 -10 6 0 10 5 10 10 0 6 -4 10 -10 10 -5 0 -10 -4 -10 -10z"/> <path d="M2422 1570 c0 -19 2 -27 5 -17 2 9 2 25 0 35 -3 9 -5 1 -5 -18z"/> <path d="M2385 1495 c0 -40 4 -64 10 -62 13 5 13 119 0 124 -6 2 -10 -23 -10 -62z"/> <path d="M2420 1513 c-5 -122 -12 -181 -24 -223 -8 -27 -15 -52 -16 -55 -2 -12 -13 -43 -26 -73 -8 -18 -11 -38 -8 -44 8 -13 44 41 44 67 0 11 9 43 19 70 15 38 19 73 18 148 -1 54 2 98 8 100 5 2 4 7 -3 11 -7 4 -12 4 -12 -1z"/> <path d="M501 1444 c0 -11 3 -14 6 -6 3 7 2 16 -1 19 -3 4 -6 -2 -5 -13z"/> <path d="M540 1410 c0 -11 4 -20 9 -20 5 0 7 9 4 20 -3 11 -7 20 -9 20 -2 0 -4 -9 -4 -20z"/> <path d="M1250 2380 c-8 -6 -28 -15 -43 -20 -16 -6 -25 -15 -21 -21 4 -8 9 -8 17 0 6 6 21 11 32 11 12 0 25 3 29 8 4 4 12 7 17 7 14 0 12 20 -3 22 -7 1 -20 -2 -28 -7z"/> <path d="M1165 2180 c-3 -6 1 -7 9 -4 18 7 21 14 7 14 -6 0 -13 -4 -16 -10z"/> <path d="M1067 2124 c-10 -13 -24 -24 -32 -24 -13 0 -35 -29 -35 -44 0 -3 10 -4 23 -2 12 1 22 8 22 14 0 6 15 24 33 40 22 20 29 31 20 35 -7 2 -21 -6 -31 -19z"/> <path d="M985 2040 c2 -11 -1 -23 -7 -26 -6 -4 -8 -2 -4 4 3 6 2 13 -4 17 -5 3 -10 0 -10 -8 0 -7 -18 -28 -40 -45 -25 -21 -37 -38 -34 -47 4 -9 0 -15 -10 -15 -17 0 -22 -15 -7 -25 5 -3 16 4 24 15 7 11 17 17 22 12 5 -4 5 -2 2 4 -4 7 1 20 11 31 9 10 13 13 8 6 -5 -8 -4 -13 3 -13 6 0 12 5 12 10 1 6 3 15 4 20 1 6 3 14 4 20 0 5 7 7 14 4 7 -2 21 3 30 13 15 17 15 19 -3 31 -16 10 -18 9 -15 -8z"/> <path d="M880 1880 c-6 -12 -9 -24 -7 -27 3 -2 11 5 17 17 6 12 9 24 7 27 -3 2 -11 -5 -17 -17z"/> <path d="M837 1865 c-10 -14 -14 -25 -8 -25 12 0 41 28 41 41 0 16 -14 9 -33 -16z"/> <path d="M757 1593 c-11 -17 -9 -117 2 -148 9 -25 10 -20 7 36 -2 36 0 73 5 80 9 17 -5 47 -14 32z"/> <path d="M2005 2082 c-8 -8 36 -52 52 -52 7 0 13 -6 13 -14 0 -8 7 -17 16 -20 15 -6 15 -4 3 11 -25 33 -78 80 -84 75z"/> <path d="M580 1686 c0 -13 -3 -31 -6 -40 -3 -9 -2 -16 4 -16 5 0 12 18 14 40 2 22 0 40 -4 40 -5 0 -8 -11 -8 -24z"/> <path d="M572 1590 c0 -19 2 -27 5 -17 2 9 2 25 0 35 -3 9 -5 1 -5 -18z"/> <path d="M810 1716 c0 -8 -3 -22 -7 -32 -4 -11 -3 -15 4 -11 13 8 23 57 12 57 -5 0 -9 -6 -9 -14z"/> <path d="M1410 1509 l0 -279 55 0 55 0 0 125 0 125 55 0 55 0 0 40 0 40 -55 0 -55 0 0 76 0 76 59 -4 59 -3 4 38 c2 21 1 40 -2 42 -3 2 -56 4 -118 4 l-112 -1 0 -279z"/> <path d="M1710 1744 l0 -44 45 0 45 0 0 -235 0 -235 58 0 57 0 -3 235 -3 235 45 0 46 0 0 45 0 45 -145 -1 -145 -1 0 -44z"/> <path d="M680 1273 c0 -4 5 -15 10 -23 8 -13 10 -13 10 2 0 9 -4 20 -10 23 -5 3 -10 3 -10 -2z"/> <path d="M700 1211 c0 -6 5 -13 10 -16 6 -3 10 1 10 9 0 9 -4 16 -10 16 -5 0 -10 -4 -10 -9z"/> <path d="M730 1151 c0 -5 5 -13 10 -16 6 -3 10 -2 10 4 0 5 -4 13 -10 16 -5 3 -10 2 -10 -4z"/> <path d="M746 1062 c-3 -6 -1 -14 5 -17 14 -9 20 -2 10 14 -6 8 -11 9 -15 3z"/> <path d="M790 998 c0 -15 97 -115 104 -107 2 2 -20 30 -50 62 -30 32 -54 52 -54 45z"/> <path d="M836 987 c3 -10 9 -15 12 -12 3 3 0 11 -7 18 -10 9 -11 8 -5 -6z"/> <path d="M880 935 c7 -9 15 -13 17 -11 7 7 -7 26 -19 26 -6 0 -6 -6 2 -15z"/> <path d="M756 915 c18 -28 23 -31 20 -12 -3 18 -16 37 -27 37 -5 0 -2 -11 7 -25z"/> <path d="M800 878 c0 -18 68 -84 77 -74 4 3 -12 25 -35 48 -24 23 -42 34 -42 26z"/> <path d="M885 840 c-6 -10 31 -49 47 -50 10 0 3 26 -11 44 -16 18 -27 20 -36 6z"/> <path d="M1470 616 c17 -10 30 -11 42 -5 28 15 22 19 -24 19 -42 -1 -42 -1 -18 -14z"/> <path d="M1310 580 c-12 -8 -11 -10 8 -10 12 0 22 5 22 10 0 13 -11 13 -30 0z"/> <path d="M1558 553 c7 -3 16 -2 19 1 4 3 -2 6 -13 5 -11 0 -14 -3 -6 -6z"/> <path d="M2325 1305 c-4 -25 -5 -48 -2 -51 3 -3 9 15 12 41 4 25 5 48 2 51 -3 3 -9 -15 -12 -41z"/> <path d="M2266 1075 c-9 -13 -16 -27 -16 -29 0 -12 31 8 40 25 16 28 -6 32 -24 4z"/> <path d="M2236 1014 c-11 -7 -16 -17 -13 -21 4 -4 15 1 24 10 22 21 14 30 -11 11z"/> <path d="M2185 956 c-16 -15 -24 -26 -20 -26 5 0 -9 -15 -31 -34 -21 -19 -36 -37 -32 -41 4 -4 21 7 38 24 17 17 39 31 48 32 12 0 13 2 4 6 -10 4 -8 11 9 29 31 33 18 41 -16 10z"/> <path d="M2212 1321 c-8 -22 -7 -31 1 -34 8 -3 13 8 14 29 4 42 -2 43 -15 5z"/> <path d="M2180 1233 c-8 -21 -16 -41 -18 -45 -2 -5 1 -8 6 -8 10 0 25 31 27 55 0 6 6 9 13 8 6 -2 9 4 6 12 -10 24 -19 18 -34 -22z"/> <path d="M2136 1146 c-9 -15 -16 -32 -14 -38 2 -6 12 1 22 16 9 15 16 32 14 38 -2 6 -12 -1 -22 -16z"/> <path d="M2640 1478 c-1 -70 -42 -274 -69 -341 -14 -35 -14 -60 -1 -52 35 22 109 382 81 399 -6 4 -11 1 -11 -6z"/> <path d="M880 1211 c-9 -19 -7 -29 19 -70 16 -27 28 -51 25 -53 -5 -6 91 -88 102 -88 4 0 -5 13 -21 30 -43 45 -22 48 23 4 58 -58 90 -83 96 -77 3 3 8 -2 12 -11 3 -9 15 -16 27 -16 20 0 20 1 -3 25 -13 14 -27 25 -32 25 -20 0 -150 125 -172 165 -8 17 -27 43 -40 59 l-24 29 -12 -22z m38 -40 c4 -27 -12 -21 -29 10 -9 18 -8 20 8 17 10 -2 19 -14 21 -27z m30 -49 c6 -18 -15 -14 -22 4 -4 10 -1 14 6 12 6 -2 14 -10 16 -16z m22 -32 c0 -5 -4 -10 -10 -10 -5 0 -10 5 -10 10 0 6 5 10 10 10 6 0 10 -4 10 -10z"/> <path d="M587 1296 c-7 -18 25 -123 50 -166 14 -24 14 -20 -2 29 -5 16 -4 21 4 17 7 -5 8 -1 4 9 -5 14 -8 14 -15 3 -7 -9 -8 -3 -4 17 4 19 3 25 -2 17 -7 -11 -11 -7 -16 13 -4 14 -4 30 -1 35 3 6 2 17 -3 26 -8 15 -10 15 -15 0z"/> <path d="M2245 660 c-37 -39 -173 -130 -247 -166 -54 -26 -73 -44 -48 -44 49 0 340 199 340 232 0 16 -17 8 -45 -22z"/> </g> </svg> 